<svg width="186" height="46" viewBox="0 0 186 46" fill="none" xmlns="http://www.w3.org/2000/svg">
<path d="M7.1875 0.5H38.8125C42.5059 0.5 45.5 3.4941 45.5 7.1875V38.8125C45.5 42.5059 42.5059 45.5 38.8125 45.5H7.1875C3.4941 45.5 0.5 42.5059 0.5 38.8125V7.1875C0.5 3.4941 3.4941 0.5 7.1875 0.5Z" stroke="#4D5064"/>
<path d="M33.925 17.3937C33.6375 16.3875 32.9188 15.6687 31.9125 15.3812C30.1875 14.95 22.8562 14.95 22.8562 14.95C22.8562 14.95 15.6688 14.95 13.8 15.3812C12.7938 15.6687 12.075 16.3875 11.7875 17.3937C11.5 19.2625 11.5 23 11.5 23C11.5 23 11.5 26.7375 11.9313 28.6062C12.2188 29.6125 12.9375 30.3312 13.9437 30.6187C15.6687 31.05 23 31.05 23 31.05C23 31.05 30.1875 31.05 32.0562 30.6187C33.0625 30.3312 33.7813 29.6125 34.0688 28.6062C34.5 26.7375 34.5 23 34.5 23C34.5 23 34.5 19.2625 33.925 17.3937ZM20.7 26.45V19.55L26.7375 23L20.7 26.45Z" fill="#FAFAFA"/>
<path d="M77.1875 0.5H108.812C112.506 0.5 115.5 3.4941 115.5 7.1875V38.8125C115.5 42.5059 112.506 45.5 108.812 45.5H77.1875C73.4941 45.5 70.5 42.5059 70.5 38.8125V7.1875C70.5 3.4941 73.4941 0.5 77.1875 0.5Z" stroke="#4D5064"/>
<path d="M82.6499 21.61C89.0923 18.7875 93.3883 16.9268 95.5378 16.0278C101.675 13.4609 102.95 13.015 103.781 13.0001C103.964 12.9971 104.373 13.0426 104.638 13.2587C104.861 13.4411 104.923 13.6875 104.952 13.8605C104.982 14.0334 105.018 14.4274 104.989 14.7353C104.657 18.2491 103.218 26.7763 102.486 30.7118C102.176 32.3771 101.566 32.9354 100.975 32.9901C99.6919 33.1088 98.7174 32.1373 97.4744 31.3179C95.5294 30.0359 94.4305 29.2378 92.5425 27.9867C90.3606 26.5409 91.7751 25.7462 93.0185 24.4476C93.344 24.1077 98.9985 18.9359 99.1079 18.4668C99.1216 18.4081 99.1343 18.1894 99.0051 18.0739C98.8759 17.9584 98.6851 17.9979 98.5475 18.0293C98.3524 18.0738 95.2452 20.139 89.2258 24.2248C88.3439 24.8338 87.545 25.1305 86.8292 25.1149C86.0402 25.0978 84.5223 24.6663 83.394 24.2975C82.01 23.8451 80.91 23.606 81.0058 22.8377C81.0557 22.4375 81.6037 22.0283 82.6499 21.61Z" fill="#FAFAFA"/>
<path d="M147.188 0.5H178.812C182.506 0.5 185.5 3.4941 185.5 7.1875V38.8125C185.5 42.5059 182.506 45.5 178.812 45.5H147.188C143.494 45.5 140.5 42.5059 140.5 38.8125V7.1875C140.5 3.4941 143.494 0.5 147.188 0.5Z" stroke="#4D5064"/>
<path d="M164.072 30.2C155.872 30.2 151.195 24.4943 151 15H155.107C155.242 21.9686 158.27 24.9203 160.669 25.5289V15H164.537V21.01C166.905 20.7514 169.393 18.0126 170.233 15H174.1C173.456 18.7125 170.758 21.4513 168.839 22.5772C170.758 23.4901 173.831 25.8789 175 30.2H170.743C169.828 27.3091 167.55 25.0725 164.537 24.7682V30.2H164.072Z" fill="#FAFAFA"/>
</svg>
